<svg xmlns="http://www.w3.org/2000/svg" width="26" height="26" viewBox="0 0 26 26"><g fill="#fff" transform="translate(5 -1031.863)"><circle cx="8" cy="1044.863" r="13" fill="#ef4c45"/><path fill="#df2209" style="line-height:normal;-inkscape-font-specification:Sans;text-indent:0;text-align:start;text-decoration-line:none;text-transform:none;block-progression:tb;marker:none" d="M 17.289062 25.257812 A 12.999996 12.999996 0 0 0 17.710938 25.117188 A 12.999996 12.999996 0 0 0 18.896484 24.585938 A 12.999996 12.999996 0 0 0 20.023438 23.939453 A 12.999996 12.999996 0 0 0 21.080078 23.183594 A 12.999996 12.999996 0 0 0 22.056641 22.326172 A 12.999996 12.999996 0 0 0 22.943359 21.375 A 12.999996 12.999996 0 0 0 23.728516 20.339844 A 12.999996 12.999996 0 0 0 24.408203 19.232422 A 12.999996 12.999996 0 0 0 24.974609 18.0625 A 12.999996 12.999996 0 0 0 25.419922 16.841797 A 12.999996 12.999996 0 0 0 25.59375 16.154297 L 18.605469 9.1660156 L 18.595703 9.1542969 C 18.588914 9.1474076 18.581058 9.1416044 18.574219 9.1347656 C 18.567016 9.1275629 18.55804 9.1223807 18.550781 9.1152344 C 18.400715 8.9674998 18.236696 8.8347972 18.064453 8.7128906 C 17.999577 8.6669813 17.931009 8.6278647 17.863281 8.5859375 C 17.733955 8.505841 17.601763 8.4318367 17.462891 8.3671875 C 17.387696 8.3321662 17.312116 8.2997493 17.234375 8.2695312 C 17.090119 8.2134376 16.941212 8.1694648 16.789062 8.1308594 C 16.708792 8.1104834 16.631055 8.0855588 16.548828 8.0703125 C 16.319667 8.0278092 16.08564 8 15.84375 8 C 15.688289 8 15.536817 8.0096473 15.388672 8.0292969 C 14.364011 8.1652056 13.520463 8.7560178 12.900391 9.5371094 L 12.488281 9.125 C 12.449781 9.0864997 12.405037 9.0565366 12.365234 9.0195312 C 12.299414 8.9583294 12.22948 8.9044607 12.160156 8.8476562 C 12.022012 8.734453 11.8782 8.6325128 11.726562 8.5390625 C 11.616027 8.4708882 11.508075 8.4000255 11.390625 8.34375 C 11.359313 8.3287462 11.328669 8.312933 11.296875 8.2988281 C 11.104951 8.2136786 10.904255 8.147177 10.695312 8.0976562 C 10.65977 8.0892247 10.623912 8.0815358 10.587891 8.0742188 C 10.368392 8.0296379 10.142873 8 9.90625 8 C 7.7587328 8 5.9648811 9.7203 6 11.875 C 6.028269 13.6094 7.3075767 15.2744 8.71875 16.6875 L 8.7285156 16.697266 L 17.289062 25.257812 z " color="#000" font-family="Sans" font-weight="400" transform="translate(-5 1031.863)"/><path style="line-height:normal;-inkscape-font-specification:Sans;text-indent:0;text-align:start;text-decoration-line:none;text-transform:none;block-progression:tb;marker:none" d="M 3.90625,2 C 1.7587328,2 -0.03511888,3.7203 0,5.875 c 0.02826884,1.7344 1.3075767,3.3994 2.71875,4.8125 1.4111733,1.4131 3.0234753,2.59655 3.875,3.21875 l 0.28125,0.1875 0.28125,-0.1875 c 0.8508657,-0.6217 2.4888584,-1.8339 3.90625,-3.25 0.140729,-0.1406 0.269524,-0.2928 0.40625,-0.4375 L 11.09375,9.375 11.03125,9.21875 c -0.221842,0.2556 -0.442024,0.5047 -0.6875,0.75 C 9.9601337,10.35195 9.5742938,10.7301 9.1875,11.0625 8.3226003,11.8059 7.4839878,12.39675 6.875,12.84375 6.1261304,12.29365 5.0643313,11.4898 4,10.5 3.8146258,10.3276 3.6207704,10.15225 3.4375,9.96875 2.0982686,8.62765 1.0198621,7.0936 1,5.875 0.9740235,4.2813 2.2983228,3 3.90625,3 5.0116594,3 5.9450923,3.595 6.4375,4.5 L 6.875,5.3125 7.3125,4.5 C 7.8049077,3.595 8.7383415,3 9.84375,3 10.053132,3 10.404169,3.056975 10.580078,3.109375 11.835878,3.424475 12.75,4.521 12.75,5.875 L 13.53125,4.6875 C 13.019751,3.1334 11.570917,2 9.84375,2 8.6000591,2 7.5858825,2.6537 6.875,3.5625 6.1641174,2.6537 5.1499414,2 3.90625,2 Z M 10.5,4.2324219 8.9042969,7.9550781 7.9394531,6.5058594 6.6914062,9 5,9 5,10 7.3085938,10 8.0625,8.4941406 9.0957031,10.046875 10.5,6.7695312 11.916016,10.070312 13.097656,8.2011719 13.626953,10 l 1.904297,0 0,-1 L 14.375,9 13.433594,5.8007812 12.085938,7.9316406 10.5,4.2324219 Z" color="#000" font-family="Sans" font-weight="400" overflow="visible" transform="translate(1 1037.863)"/></g></svg>